<svg 
version="1.0" xmlns="http://www.w3.org/2000/svg"
 width="180.000000pt" height="180.000000pt" viewBox="0 0 180.000000 180.000000"
 preserveAspectRatio="xMidYMid meet">
<g transform="translate(0.000000,180.000000) scale(0.100000,-0.100000)"
fill="#fff" stroke="none">
<path d="M102 1779 c-26 -13 -55 -39 -70 -62 l-27 -41 0 -776 0 -776 27 -41
c16 -24 44 -49 70 -62 44 -21 50 -21 798 -21 748 0 754 0 798 21 26 13 54 38
70 62 l27 41 0 776 0 776 -27 41 c-16 24 -44 49 -70 62 -44 21 -50 21 -799 21
-751 0 -754 0 -797 -21z m1236 -504 c20 -9 48 -26 61 -38 28 -26 60 -92 61
-124 0 -21 -5 -23 -50 -23 -45 0 -50 2 -50 23 0 32 -27 67 -66 83 -104 44
-207 -23 -188 -123 11 -60 49 -91 148 -123 104 -34 145 -60 179 -113 71 -109
34 -253 -80 -308 -89 -43 -236 -27 -302 34 -28 26 -60 92 -61 125 0 19 5 22
43 22 42 0 45 -2 59 -39 20 -50 56 -73 124 -79 97 -8 154 35 154 115 0 51 -19
94 -52 114 -13 8 -62 28 -110 43 -100 33 -147 67 -177 131 -50 106 -9 229 94
276 50 23 161 25 213 4z m-638 -145 c51 -200 149 -581 156 -603 5 -16 0 -18
-43 -15 l-48 3 -26 100 -26 100 -116 3 -116 3 -11 -43 c-12 -45 -24 -93 -34
-140 -6 -26 -10 -28 -55 -28 l-49 0 39 153 c64 247 119 457 140 534 10 40 19
75 19 78 0 3 30 5 67 3 l67 -3 36 -145z"/>
<path d="M551 1007 c-25 -100 -46 -188 -49 -194 -3 -10 19 -13 92 -13 53 0 96
2 96 5 0 4 -88 364 -93 377 -1 4 -22 -74 -46 -175z"/>
</g>
</svg>
