<?xml version="1.0" standalone="no"?>
<!DOCTYPE svg PUBLIC "-//W3C//DTD SVG 20010904//EN"
 "http://www.w3.org/TR/2001/REC-SVG-20010904/DTD/svg10.dtd">
<svg version="1.0" xmlns="http://www.w3.org/2000/svg"
 width="475.000000pt" height="475.000000pt" viewBox="0 0 475.000000 475.000000"
 preserveAspectRatio="xMidYMid meet">
<metadata>
Created by potrace 1.11, written by Peter Selinger 2001-2013
</metadata>
<g transform="translate(0.000000,475.000000) scale(0.100000,-0.100000)"
fill="#000000" stroke="none">
<path d="M2595 4292 c-33 -10 -75 -25 -94 -35 -31 -16 -36 -16 -95 4 -146 50
-299 -15 -342 -144 l-16 -49 -77 7 c-61 5 -86 3 -117 -10 -90 -37 -142 -123
-154 -253 l-8 -86 -75 -68 c-42 -38 -99 -98 -128 -135 -60 -77 -190 -299 -230
-393 -27 -64 -28 -65 -71 -68 -50 -4 -66 -15 -84 -59 -12 -28 -12 -36 3 -62
17 -29 17 -32 -20 -143 -50 -153 -60 -215 -54 -331 5 -79 3 -105 -10 -132
l-16 -34 -17 50 c-20 59 -42 84 -65 75 -21 -8 -13 -35 26 -95 37 -56 36 -80
-1 -233 -17 -68 -36 -176 -42 -240 -11 -112 -13 -118 -34 -118 -12 0 -24 6
-27 13 -2 6 -8 9 -12 5 -13 -12 16 -38 41 -38 17 0 24 -6 24 -20 0 -54 97
-392 142 -494 141 -324 331 -579 554 -747 231 -174 423 -198 868 -108 210 42
476 171 686 330 78 59 201 181 285 281 26 32 52 58 57 58 5 0 6 -17 3 -37 -6
-35 -5 -36 9 -19 9 11 19 15 28 10 19 -12 38 -14 38 -2 0 5 10 9 23 8 39 -4
57 0 57 10 0 6 -11 10 -25 10 -51 0 -86 70 -50 100 41 34 133 183 172 278 23
58 52 116 65 130 26 28 103 66 117 58 12 -8 21 19 21 64 0 38 0 38 -33 31 -46
-11 -73 -27 -124 -74 l-44 -40 6 44 c4 24 11 67 15 95 5 28 6 60 4 71 -3 11 5
42 19 69 79 155 115 287 162 588 37 230 42 334 24 461 -17 122 -44 196 -90
249 l-42 47 20 22 c30 32 40 55 57 131 29 123 17 200 -41 277 -40 53 -94 87
-155 97 l-42 7 -11 65 c-13 76 -31 114 -77 156 -60 57 -94 69 -189 67 l-85 -2
-13 37 c-36 104 -112 160 -227 170 -51 4 -71 0 -109 -18 -43 -21 -48 -21 -56
-7 -63 112 -189 158 -324 119z m-260 -564 c28 -6 66 -18 85 -28 51 -25 145
-48 227 -55 90 -9 279 -61 393 -109 66 -28 99 -36 147 -36 67 0 122 -24 264
-116 36 -23 82 -49 100 -57 46 -19 148 -131 188 -206 50 -95 72 -176 70 -261
-2 -67 -25 -235 -43 -315 -10 -43 -38 -106 -45 -103 -4 2 -32 19 -63 38 -41
25 -62 46 -75 75 -23 52 -94 128 -149 160 -112 66 -416 151 -510 143 -36 -3
-39 -6 -42 -34 -6 -58 27 -80 160 -111 l117 -28 -112 0 c-127 0 -196 -14 -280
-58 l-58 -30 -42 32 c-23 18 -76 49 -117 69 l-75 37 -136 0 -136 -1 -21 37
c-49 84 -133 157 -245 210 -78 36 -68 36 63 -1 118 -33 129 -34 163 -19 37 17
50 53 29 78 -39 45 -304 113 -447 115 -105 1 -145 -9 -200 -49 -25 -19 -47
-23 -126 -27 l-96 -4 32 77 c83 192 172 328 286 433 68 63 127 96 244 137 77
26 85 27 240 22 88 -2 183 -9 210 -15z m-633 -742 c193 -40 323 -115 393 -231
36 -59 36 -61 30 -139 -7 -79 -31 -149 -77 -224 l-21 -34 -21 51 c-32 78 -97
154 -182 210 -91 61 -164 85 -264 85 -63 1 -85 -4 -132 -27 -69 -34 -118 -89
-118 -132 0 -29 23 -76 33 -65 2 3 18 25 34 50 53 79 170 124 270 105 l38 -7
-54 -20 c-102 -39 -166 -137 -159 -245 3 -46 5 -49 48 -70 91 -46 167 -63 271
-63 113 0 119 4 141 98 7 29 15 52 19 52 3 0 13 -16 22 -36 22 -44 14 -59 -58
-118 -74 -60 -146 -93 -243 -114 -76 -15 -88 -15 -177 0 -143 25 -262 87 -296
155 -8 16 -27 50 -44 78 -41 68 -40 141 3 302 18 67 32 137 30 156 -3 57 77
158 152 190 57 25 223 21 362 -7z m799 -346 c64 -26 149 -86 149 -106 0 -8 -9
-34 -19 -57 -29 -63 -44 -194 -38 -321 5 -113 13 -144 62 -251 16 -33 29 -63
29 -67 1 -3 5 -10 10 -15 6 -5 6 -2 1 7 -8 13 -7 13 8 1 18 -14 24 -36 7 -26
-5 3 -10 1 -10 -5 0 -7 6 -10 14 -7 7 3 27 -7 44 -21 223 -194 550 -239 755
-104 42 28 52 26 38 -10 -22 -57 -124 -138 -176 -138 -8 0 -15 -4 -15 -10 0
-5 -7 -10 -15 -10 -21 0 -19 -17 4 -30 23 -12 101 -6 130 9 11 6 22 11 25 11
39 0 -142 -335 -208 -388 -42 -32 -110 -37 -208 -13 -124 30 -142 20 -213
-123 -29 -59 -61 -101 -120 -161 -71 -73 -90 -86 -170 -119 -187 -78 -331 -99
-411 -58 -22 11 -69 26 -105 32 -79 14 -183 43 -255 70 -30 11 -71 20 -91 20
-57 0 -120 39 -197 121 -150 159 -205 275 -212 444 -3 55 -6 127 -8 161 l-3
60 61 -9 c33 -5 73 -15 88 -23 24 -12 27 -20 32 -91 16 -196 49 -274 171 -397
101 -103 154 -138 268 -175 185 -60 286 -66 443 -26 180 46 268 105 362 248
25 38 51 71 59 74 8 3 39 -4 69 -16 71 -27 98 -27 124 2 16 16 20 30 15 52
-21 106 -193 223 -450 304 -55 18 -126 41 -157 53 l-57 20 51 26 c35 17 59 39
80 71 27 42 29 52 25 118 -2 48 -10 81 -23 100 l-19 28 -7 -69 c-10 -85 -32
-125 -82 -150 -49 -24 -145 -25 -215 -2 -57 20 -141 90 -141 119 0 20 -4 21
-32 6 -21 -11 -20 -32 4 -91 8 -21 17 -28 38 -28 28 0 60 -22 60 -41 0 -14
-46 -29 -86 -29 -37 0 -90 22 -96 40 -8 25 -179 53 -328 54 -133 1 -149 -1
-192 -22 -56 -28 -88 -64 -89 -101 0 -14 -3 -21 -5 -14 -3 6 -41 24 -86 39
-169 56 -216 148 -188 371 10 80 57 263 77 296 6 10 57 -54 73 -93 7 -16 16
-30 21 -30 5 0 6 -6 3 -13 -2 -7 13 -31 34 -54 40 -42 82 -64 82 -43 0 7 -9
14 -19 17 -10 3 -21 16 -24 29 -4 20 -1 24 12 18 92 -41 192 -66 290 -71 126
-6 199 6 286 47 128 61 226 161 319 324 31 53 46 72 54 64 7 -7 18 -3 37 15
25 23 27 28 16 58 -6 18 -18 41 -27 50 -24 26 -13 52 26 67 49 17 174 8 241
-18z m768 -54 c52 -15 131 -44 176 -65 90 -42 168 -91 145 -91 -9 0 -5 -9 12
-27 14 -16 34 -44 44 -63 20 -41 30 -161 19 -245 l-7 -57 -43 74 c-67 114
-181 222 -123 117 51 -92 57 -107 77 -169 11 -36 22 -82 25 -103 2 -21 6 -41
10 -44 10 -10 -32 -78 -79 -125 -52 -53 -144 -102 -225 -119 -131 -28 -356 43
-463 146 -57 55 -86 99 -119 182 l-25 62 36 35 c20 20 39 36 43 36 3 0 3 -30
1 -67 l-5 -68 108 -55 c102 -52 111 -55 182 -55 51 0 77 -4 79 -12 7 -19 44
-16 60 5 27 34 51 88 58 129 9 57 -17 143 -56 188 -29 33 -30 35 -10 35 26 0
93 -33 138 -67 40 -30 81 -111 89 -175 7 -54 31 -65 58 -26 37 52 1 164 -72
230 -176 159 -494 157 -665 -4 -26 -24 -49 -42 -52 -40 -8 8 -6 168 2 189 6
15 8 13 13 -11 l5 -29 27 39 c15 21 32 51 37 67 10 25 9 27 -18 27 -19 0 -32
-7 -39 -22 -11 -20 -11 -19 -6 12 11 60 41 106 90 139 26 17 50 31 53 31 3 1
29 7 56 15 75 22 246 13 364 -19z m-1583 -61 c34 -52 -31 -111 -76 -70 -24 22
-26 52 -3 77 23 26 59 23 79 -7z m1288 -328 c37 -27 13 -97 -33 -97 -23 0 -51
31 -51 56 0 22 33 54 55 54 6 0 19 -6 29 -13z m-1025 -823 c394 -112 521 -153
521 -170 0 -8 7 -17 15 -20 26 -10 17 -34 -13 -34 -56 0 -611 146 -747 197
-51 19 -71 48 -38 56 56 15 143 5 262 -29z m-296 -252 c72 -49 210 -103 245
-96 21 4 46 -1 84 -19 29 -13 80 -27 113 -30 39 -4 64 -12 72 -23 18 -24 133
-45 256 -46 71 -1 106 -5 104 -12 -8 -23 -66 -46 -174 -68 l-112 -22 -148 33
c-81 18 -182 46 -223 62 -41 16 -79 29 -84 29 -33 0 -186 165 -186 201 0 25 4
24 53 -9z"/>
<path d="M1345 2734 c-82 -48 -102 -81 -108 -174 -3 -41 -6 -75 -7 -75 -1 0
-3 -8 -5 -17 -2 -10 -2 -18 -1 -18 2 0 31 48 66 106 34 59 84 129 110 156 26
27 42 47 35 44 -7 -2 -17 0 -22 5 -5 5 -33 -5 -68 -27z"/>
<path d="M2070 2710 c0 -5 5 -10 10 -10 6 0 10 5 10 10 0 6 -4 10 -10 10 -5 0
-10 -4 -10 -10z"/>
<path d="M2112 2247 c-41 -66 -114 -144 -174 -187 -44 -31 -60 -50 -40 -50 13
0 86 41 104 59 9 9 38 36 63 61 57 55 117 171 88 170 -5 0 -23 -24 -41 -53z"/>
<path d="M1288 2013 c7 -3 16 -2 19 1 4 3 -2 6 -13 5 -11 0 -14 -3 -6 -6z"/>
<path d="M1638 1953 c6 -2 18 -2 25 0 6 3 1 5 -13 5 -14 0 -19 -2 -12 -5z"/>
<path d="M1638 1923 c12 -2 30 -2 40 0 9 3 -1 5 -23 4 -22 0 -30 -2 -17 -4z"/>
<path d="M2725 1760 c3 -5 8 -10 11 -10 2 0 4 5 4 10 0 6 -5 10 -11 10 -5 0
-7 -4 -4 -10z"/>
<path d="M3146 1511 c6 -7 35 -14 65 -16 58 -5 38 6 -36 19 -29 6 -37 5 -29
-3z"/>
<path d="M3160 1471 c14 -4 43 -10 65 -13 l40 -6 -30 13 c-16 8 -46 14 -65 14
-31 -1 -32 -2 -10 -8z"/>
<path d="M2295 739 c-16 -5 -64 -12 -105 -16 -64 -6 -70 -8 -41 -14 31 -7 173
19 188 35 8 8 -5 6 -42 -5z"/>
</g>
</svg>
